{"title":"The Dark Lurking-AC3-XviD-BRRip[Eng]2010 2Lions-Team","uid":5882898,"size":1297039880,"categoryP":"video","categoryS":"movies","magnet":"?xt=urn:btih:d9f0508642c9494b6c6b6fbf272478afc29f312f&amp;dn=The+Dark+Lurking-AC3-XviD-BRRip%5BEng%5D2010+2Lions-Team&amp;tr=udp%3A%2F%2Ftracker.openbittorrent.com%3A80&amp;tr=udp%3A%2F%2Fopen.demonii.com%3A1337&amp;tr=udp%3A%2F%2Ftracker.coppersurfer.tk%3A6969&amp;tr=udp%3A%2F%2Fexodus.desync.com%3A6969","seeders":0,"leechers":1,"uploader":"FatFreddy31","files":-1,"time":1286900747,"description":"The eight remaining survivors of a secret research facility barricade themselves away from a horde of ancient and deadly creatures. \n &lt;a href=&quot;\nhttp://www.imdb.com/title/tt1391579/&quot; rel=&quot;nofollow&quot; target=&quot;_NEW&quot;&gt;\nhttp://www.imdb.com/title/tt1391579/&lt;/a&gt;\n\nSubtitles (srt) : Dutch.\n\nCovers included.\n\nAchthonderd meter onder water raakt onderzoekscentrum 320 plotseling offline. Als dan honderden gruwelijke mutanten vrijkomen en blijkt dat deze monsters trek hebben in menselijk vlees, moeten de acht overlevenden alles op alles zetten om te overleven. Maar de gruwelijke monsters zijn sterk ÃƒÂ©n met veel meer, waardoor de kans op overleven niet bepaald groot lijkt.\n &lt;a href=&quot;\nhttp://www.moviemeter.nl/film/49879&quot; rel=&quot;nofollow&quot; target=&quot;_NEW&quot;&gt;\nhttp://www.moviemeter.nl/film/49879&lt;/a&gt;\n\nOndertitels (srt) : Nederlands.\n\nHoesjes bijgevoegd.\n\nGeneral\nComplete name                    : The Dark Lurking-AC3-XviD-BRRip[Eng]2010 2Lions-Team\\The Dark Lurking-AC3-XviD-BRRip[Eng]2010 2Lions-Team.avi\nFormat                           : AVI\nFormat/Info                      : Audio Video Interleave\nFile size                        : 1.21 GiB\nDuration                         : 1h 36mn\nOverall bit rate                 : 1 791 Kbps\nWriting application              : VirtualDubMod 1.5.4.1 (build 2178/release)\nWriting library                  : VirtualDubMod build 2178/release\nSource                           : Alien.vs.Zombies.The.Dark.Lurking.2010.AC3.DL.1080p.BluRay.x264-SoW\n\nVideo\nID                               : 0\nFormat                           : MPEG-4 Visual\nFormat profile                   : Simple@L3\nFormat settings, BVOP            : No\nFormat settings, QPel            : No\nFormat settings, GMC             : No warppoints\nFormat settings, Matrix          : Default (H.263)\nCodec ID                         : XVID\nCodec ID/Hint                    : XviD\nDuration                         : 1h 36mn\nBit rate                         : 1 334 Kbps\nWidth                            : 720 pixels\nHeight                           : 304 pixels\nDisplay aspect ratio             : 2.35:1\nFrame rate                       : 25.000 fps\nColor space                      : YUV\nChroma subsampling               : 4:2:0\nBit depth                        : 8 bits\nScan type                        : Progressive\nBits/(Pixel*Frame)               : 0.244\nStream size                      : 921 MiB (74%)\nWriting library                  : XviD 1.1.2 (UTC 2006-11-01)\n\nAudio\nID                               : 1\nFormat                           : AC-3\nFormat/Info                      : Audio Coding 3\nMode extension                   : CM (complete main)\nCodec ID                         : 2000\nDuration                         : 1h 36mn\nBit rate mode                    : Constant\nBit rate                         : 448 Kbps\nChannel(s)                       : 6 channels\nChannel positions                : Front: L C R, Side: L R, LFE\nSampling rate                    : 48.0 KHz\nBit depth                        : 16 bits\nStream size                      : 309 MiB (25%)\nAlignment                        : Split accross interleaves\nInterleave, duration             : 40 ms (1.00 video frame)\nInterleave, preload duration     : 500 ms\n\nBrought to you by \n2Lions Team\n\nmeer zien??\n                   \nKom dan eens kijken op ons NIEUWE forum \n            &lt;a href=&quot;\nhttp://www.2lions-site.nl/&quot; rel=&quot;nofollow&quot; target=&quot;_NEW&quot;&gt;\nhttp://www.2lions-site.nl/&lt;/a&gt;\n\n2Lions the site to be for all your Dutch MOVIES and more\n\n******************************************\n\nDON T HIT AND RUN Niet gelijk afhaken als de FILM binnen is blijf seeden. \n\nDon`t quit after you finished the download, but keep seeding\n\nThere are fake torrents from uploaders who use our team name.\nThose are not ours, or members from our team.\nWe 2Lions-Team are not responsible for the fake posts on our name\n\nWij 2Lions-Team zijn niet verantwoordelijk voor die zieke FAKE posten die op onze naam worden gedaan\n\nPlease check our site !!!\n\nto the fakers , get a life !!!","torrent":{"xt":"urn:btih:d9f0508642c9494b6c6b6fbf272478afc29f312f","amp;dn":"The+Dark+Lurking-AC3-XviD-BRRip%5BEng%5D2010+2Lions-Team","amp;tr":["udp%3A%2F%2Ftracker.openbittorrent.com%3A80","udp%3A%2F%2Fopen.demonii.com%3A1337","udp%3A%2F%2Ftracker.coppersurfer.tk%3A6969","udp%3A%2F%2Fexodus.desync.com%3A6969"],"infoHash":"d9f0508642c9494b6c6b6fbf272478afc29f312f","infoHashBuffer":{"type":"Buffer","data":[217,240,80,134,66,201,73,75,108,107,111,191,39,36,120,175,194,159,49,47]},"announce":[],"urlList":[]}}